# xmcd
#
# Track frame offsets: 
#        150
#        12033
#        26833
#        42254
#        58602
#        74722
#        87385
#        101629
#
# Disc length: 1546 seconds
#
# Revision: 0
# Processed by: cddbd v1.5.1PL2 Copyright (c) Steve Scherf et al.
# Submitted via: ExactAudioCopy v0.95a3
#
DISCID=69060808
DTITLE=Elana James - Top Secret Illegal Bootleg Sampler!
DYEAR=2006
DGENRE=Swing
TTITLE0=One More Night
TTITLE1=Twenty-Four Hours a Day
TTITLE2=All the World and I
TTITLE3=Oh, Baby
TTITLE4=I Got It Bad (And That Ain't Good)
TTITLE5=Osage Stomp
TTITLE6=Run Away With Me
TTITLE7=Eva's Waltz
EXTD=
EXTT0=
EXTT1=
EXTT2=
EXTT3=
EXTT4=
EXTT5=
EXTT6=
EXTT7=
PLAYORDER=
